<svg width="36" height="51" viewBox="0 0 36 51" fill="none" xmlns="http://www.w3.org/2000/svg">
<path d="M17.8998 31L34.7998 31L34.7998 16C34.7998 7.7 28.0998 1 19.7998 1H15.9998C7.6998 1 0.999802 7.7 0.999802 16L0.999802 31L17.8998 31Z" stroke="#EFF0F7" stroke-width="2" stroke-miterlimit="10"/>
<path d="M15.9994 49.2H17.8994V46.4C16.5994 46.4 15.4994 45.3 15.4994 44L15.4994 38.5C15.4994 37.2 16.5994 36.1 17.8994 36.1V31.1L0.999413 31.1V34.3C0.999413 42.5 7.69941 49.2 15.9994 49.2Z" stroke="#EFF0F7" stroke-width="2" stroke-miterlimit="10"/>
<path d="M20.2998 38.4L20.2998 43.9C20.2998 45.2 19.1998 46.3 17.8998 46.3V49.1H19.7998C28.0998 49.1 34.7998 42.4 34.7998 34.1V30.9L17.8998 30.9V35.9C19.1998 36 20.2998 37.1 20.2998 38.4Z" stroke="#EFF0F7" stroke-width="2" stroke-miterlimit="10"/>
</svg>
